HIERARCHY
ROOT Hips
{
  OFFSET 0 0 0
  CHANNELS 6 Xposition Yposition Zposition Zrotation Yrotation Xrotation
  JOINT LeftThigh
  {
    OFFSET 8.409438 0 -5.917753
    CHANNELS 3 Zrotation Yrotation Xrotation
    JOINT LeftLeg
    {
      OFFSET 0 0 -42.358652
      CHANNELS 3 Zrotation Yrotation Xrotation
      JOINT LeftFoot
      {
        OFFSET 0 0 -39.357303
        CHANNELS 3 Zrotation Yrotation Xrotation
      }
    }
  }
  JOINT RightThigh
  {
    OFFSET -8.409438 0 -5.917753
    CHANNELS 3 Zrotation Yrotation Xrotation
    JOINT RightLeg
    {
      OFFSET 0 0 -42.358652
      CHANNELS 3 Zrotation Yrotation Xrotation
      JOINT RightFoot
      {
        OFFSET 0 0 -39.357303
        CHANNELS 3 Zrotation Yrotation Xrotation
      }
    }
  }
  JOINT SpineLow
  {
    OFFSET 0 0 4.719101
    CHANNELS 3 Zrotation Yrotation Xrotation
    JOINT SpineMid
    {
      OFFSET 0 0 12.899191
      CHANNELS 3 Zrotation Yrotation Xrotation
      JOINT Chest
      {
        OFFSET 0 0 12.899191
        CHANNELS 3 Zrotation Yrotation Xrotation
        JOINT LeftShoulder
        {
          OFFSET 7.550562 1.41573 9.438202
          CHANNELS 3 Zrotation Yrotation Xrotation
          JOINT LeftArm
          {
            OFFSET 9.155056 0 4.247191
            CHANNELS 3 Zrotation Yrotation Xrotation
            JOINT LeftForearm
            {
              OFFSET 0 0 25.771955
              CHANNELS 3 Zrotation Yrotation Xrotation
              JOINT LeftHand
              {
                OFFSET 0 0 25.197169
                CHANNELS 3 Zrotation Yrotation Xrotation
              }
            }
          }
        }
        JOINT RightShoulder
        {
          OFFSET -7.550562 1.41573 9.438202
          CHANNELS 3 Zrotation Yrotation Xrotation
          JOINT RightArm
          {
            OFFSET -9.155056 0 4.247191
            CHANNELS 3 Zrotation Yrotation Xrotation
            JOINT RightForearm
            {
              OFFSET 0 0 -25.771955
              CHANNELS 3 Zrotation Yrotation Xrotation
              JOINT RightHand
              {
                OFFSET 0 0 -25.197169
                CHANNELS 3 Zrotation Yrotation Xrotation
              }
            }
          }
        }
        JOINT Neck
        {
          OFFSET 0 0 15.101124
          CHANNELS 3 Zrotation Yrotation Xrotation
          JOINT Head
          {
            OFFSET 0 0 11.325843
            CHANNELS 3 Zrotation Yrotation Xrotation
            End Site
            {
              OFFSET 0 0 14.157303
            }
          }
        }
      }
    }
  }
}
MOTION
Frames: 10
Frame Time: 0.0
0.0  101.685394  0.0  5.446207  -3.168892  -123.463298  26.351082  -27.161359  -84.03625  11.028623  11.727144  75.285357  -9.148214  -15.343661  -3.867403  -9.106852  3.661647  2.004214  15.6318  2.391247  34.454551  11.029988  3.231009  6.740413  -3.00731  1.783423  5.189417  -7.810805  5.484496  13.966762  -7.810804  5.484496  13.966762  8.511228  27.775236  15.755286  -155.842599  47.032137  -123.382774  -42.225435  -26.813741  96.686238  82.240526  -12.344617  -19.572395  24.734511  -4.814285  30.053406  125.111235  53.241284  66.453697  -16.567425  12.908444  -107.274493  60.723574  -2.616379  15.757189  5.428798  6.478004  3.048377  4.034936  4.88614  2.226286  
0.0  101.685394  0.0  5.18714  -2.923252  -123.097473  24.552327  -23.773892  -80.147261  3.728732  9.747546  60.300806  -12.397416  -16.724326  -2.987468  -8.377277  2.848584  1.228392  15.296462  2.108311  35.233397  10.574342  3.551306  6.878489  -3.199391  1.752538  5.071989  -8.350952  5.426283  13.631731  -8.350953  5.426283  13.631733  9.627948  28.864735  16.829639  -154.30933  46.976793  -121.770664  -41.912318  -27.065832  96.590051  82.468533  -11.960424  -20.010858  25.474763  -4.50435  31.311444  125.450418  54.499199  66.477159  -16.399699  13.006894  -107.706453  61.348003  -2.511389  14.856253  5.89413  6.927473  3.520517  4.375292  5.230278  2.570342  
0.0  101.685394  0.0  4.910506  -3.021056  -122.415435  22.67456  -21.496767  -75.410213  -3.097006  6.727769  43.229535  -15.166457  -17.577898  -1.157934  -7.904762  1.965413  0.15816  15.385104  1.76374  35.904963  9.997017  3.788846  6.9664  -3.262577  1.712096  5.018128  -8.535737  5.322566  13.483246  -8.535737  5.322566  13.483246  10.053092  29.546919  17.361467  -153.068629  46.758849  -120.233299  -41.924052  -27.303448  96.55296  82.410883  -11.468027  -19.8939  25.802274  -4.223227  31.69428  125.314522  55.458763  65.929126  -16.423294  13.290095  -107.958769  61.790555  -2.401037  14.141243  6.034682  7.179361  3.618352  4.477555  5.421031  2.639283  
0.0  101.685394  0.0  4.538838  -3.526052  -121.636666  21.632166  -23.933787  -71.290481  -5.517398  6.301646  26.854659  -16.973188  -19.508359  1.70158  -7.968402  0.931118  -0.750112  15.955488  1.559768  36.291986  9.598116  3.982435  7.065067  -3.199079  1.662219  5.051411  -8.369348  5.178423  13.585022  -8.369348  5.178424  13.585022  9.823582  29.754205  17.227124  -152.081069  46.287285  -118.95867  -42.053544  -27.455206  96.547681  82.179424  -10.91987  -19.365482  25.858894  -4.190235  31.230358  124.816274  55.963624  65.059316  -16.268656  13.448191  -108.038778  62.470507  -2.748071  14.672423  5.931368  7.262856  3.412937  4.401962  5.481014  2.485715  
0.0  101.685394  0.0  4.184653  -4.665521  -121.077486  18.950041  -33.092057  -67.212487  -3.694691  5.446205  15.063193  -16.155283  -19.751318  2.156302  -8.505166  -0.195326  -1.093931  16.986955  1.507057  36.380814  9.680305  4.087132  7.215443  -2.97851  1.602804  5.160505  -7.770784  4.984722  13.907588  -7.770784  4.984722  13.907588  9.092222  29.678995  16.703451  -151.185706  45.538732  -118.014625  -42.062787  -27.511628  96.568304  81.98383  -10.283345  -18.844461  25.437079  -4.338901  30.306106  124.452243  56.052882  64.175275  -16.007981  13.223872  -107.964382  62.980603  -2.637307  14.401893  5.671193  7.314529  3.145228  4.209907  5.515759  2.287734  
0.0  101.685394  0.0  3.997775  -6.231686  -121.089261  17.524652  -45.914545  -64.166631  5.48877  6.01193  5.539881  -14.971245  -17.564771  2.871432  -9.641335  -0.978228  -0.66016  18.431054  1.390677  36.249316  10.176697  4.140867  7.480114  -2.61301  1.573664  5.327075  -6.767644  4.845974  14.394819  -6.767644  4.845974  14.394818  7.921827  29.190069  16.129337  -150.470892  44.457607  -117.63998  -41.973925  -27.415479  96.634072  81.475318  -9.810742  -18.334042  24.415958  -4.796318  29.396191  124.500756  55.909559  63.561409  -15.55106  12.656157  -107.808354  63.365482  -2.391681  14.193794  5.285696  7.345032  3.038392  3.922246  5.535651  2.212021  
0.0  101.685394  0.0  3.96774  -7.548501  -121.405595  8.641618  -55.061388  -59.468448  16.675138  1.375927  3.22755  -11.972189  -14.466188  2.997202  -11.306901  -1.033753  -0.165342  19.749722  1.089498  36.201967  11.143098  3.985821  7.881107  -2.248197  1.612178  5.505283  -5.751972  4.88675  14.907965  -5.751972  4.88675  14.907966  6.752926  28.117909  15.489363  -150.4825  43.139173  -118.15464  -42.04998  -27.071043  96.925413  81.500877  -9.247597  -18.344811  22.88865  -5.427101  28.473243  125.036426  55.639275  63.095681  -14.995063  11.876285  -107.710753  63.666342  -2.113522  13.964912  4.895264  7.197738  2.976914  3.631482  5.422667  2.17198  
0.0  101.685394  0.0  4.326281  -6.162958  -120.862465  -4.205265  -60.980034  -53.426156  32.801544  -1.95138  3.418708  -15.250826  -14.387704  4.860596  -14.237903  0.787886  -1.438649  20.053901  0.59998  36.609575  12.363421  3.516843  8.216765  -2.316796  1.800495  5.476829  -5.900395  5.411012  14.812102  -5.900395  5.411011  14.812101  6.06365  26.769181  15.094407  -151.308766  41.667781  -119.499965  -42.436161  -26.337744  97.626637  81.455636  -8.704183  -18.47953  21.075138  -6.052058  27.720812  125.704924  55.133601  62.50761  -14.525213  11.311723  -107.675067  63.990343  -1.927394  13.774042  4.516312  6.898867  2.939319  3.349899  5.196311  2.150756  
0.0  101.685394  0.0  5.113791  -6.766584  -121.950882  -11.784868  -62.598115  -49.21263  41.893673  -5.637128  6.993987  -19.025731  -15.37981  6.027211  -14.047241  2.370089  -1.259735  19.467708  0.069779  37.350688  13.564063  2.876629  8.477118  -2.172295  2.013625  5.709798  -5.438617  5.975789  15.450047  -5.438617  5.975789  15.450048  5.943715  25.452741  14.282801  -152.374531  40.065841  -121.265389  -43.059191  -25.173804  98.712898  81.175577  -8.316656  -18.486937  19.94156  -6.456024  26.479212  125.816169  54.360582  61.451884  -14.332  11.269723  -107.618667  64.36593  -1.842501  13.551913  4.393297  6.515442  2.433506  3.265431  4.904439  1.776249  
0.0  101.685394  0.0  6.226739  -6.155509  -123.508653  -3.774365  -58.578428  -57.166865  40.536261  -6.005391  14.91405  -22.103918  -16.734579  5.214458  -13.75004  4.759283  -0.854869  18.480612  -0.915042  38.306862  14.104787  2.741816  8.674107  -2.309638  2.331129  5.939261  -5.716501  6.887742  16.047444  -5.716501  6.887742  16.047444  6.43791  24.304016  13.622742  -153.448054  38.314319  -123.246108  -43.811469  -23.810448  99.991711  80.790354  -8.156077  -18.197124  19.878286  -6.577647  25.530681  124.822945  53.665338  59.754953  -15.252051  11.731427  -106.689731  64.504392  -1.230696  12.156889  4.657045  6.174333  1.826117  3.47092  4.645013  1.321137  
